<?xml version="1.0" encoding="UTF-8"?>
<svg id="Calque_1" xmlns="http://www.w3.org/2000/svg" xmlns:xlink="http://www.w3.org/1999/xlink" version="1.1" viewBox="0 0 64 64">
  <!-- Generator: Adobe Illustrator 30.0.0, SVG Export Plug-In . SVG Version: 2.1.1 Build 123)  -->
  <defs>
    <style>
      .st0 {
        fill: #5c8e93;
      }

      .st1 {
        fill: #709ca6;
      }

      .st2 {
        fill: #ebebeb;
      }

      .st3 {
        fill: #fff;
      }

      .st4 {
        fill: url(#Dégradé_sans_nom_20);
      }

      .st5 {
        fill: #134489;
        fill-rule: evenodd;
      }
    </style>
    <linearGradient id="Dégradé_sans_nom_20" data-name="Dégradé sans nom 20" x1="46.54" y1="29.97" x2="46.54" y2="63.66" gradientUnits="userSpaceOnUse">
      <stop offset="0" stop-color="#f2f4f4"/>
      <stop offset="1" stop-color="#e8e8e8"/>
    </linearGradient>
  </defs>
  <g>
    <path class="st0" d="M59.61,63.9H4.32c-2.33,0-4.22-1.89-4.22-4.22V4.39C.1,2.06,2,.16,4.32.16h55.29c2.33,0,4.22,1.9,4.22,4.22v55.29c0,2.33-1.9,4.22-4.22,4.22ZM4.32.68C2.28.68.62,2.34.62,4.39v55.29c0,2.04,1.66,3.71,3.71,3.71h55.29c2.04,0,3.71-1.66,3.71-3.71V4.39c0-2.04-1.66-3.71-3.71-3.71H4.32Z"/>
    <rect class="st1" x=".33" y=".42" width="63.28" height="63.28" rx="3.97" ry="3.97"/>
    <g>
      <path class="st3" d="M14.4,21.3l10.98-9.39v-.03h21.98c1.2,0,2.18.94,2.18,2.1v36.12c0,1.16-.98,2.1-2.18,2.1h-30.77c-1.2,0-2.18-.94-2.18-2.1v-28.81h-.02ZM17.34,49.27h29.27V14.82h-21.23v6.48h-8.03v27.98Z"/>
      <rect class="st3" x="20.44" y="42.68" width="22.83" height="3.19"/>
      <rect class="st3" x="28.71" y="37.08" width="14.56" height="3.19"/>
    </g>
    <g>
      <path class="st3" d="M41.61,21.63c-1.99-2.55-5.15-3.54-8.26-2.57-3.1.96-5.14,3.55-5.32,6.75-.01.17,0,.34,0,.51,0,.13,0,.26,0,.38v.08s.02.08.02.08c.02.07.02.15.03.22,0,.07.01.14.02.21.44,3.33,3.17,6.07,6.51,6.51.07,0,.15.02.22.02.07,0,.15,0,.22.02l1.04.02h.02c2.84-.17,5.24-1.83,6.43-4.45,1.19-2.62.85-5.54-.9-7.79ZM40.55,29.43c-1.05,1.65-2.85,2.66-4.81,2.71-1.96.04-3.83-.9-4.95-2.51-1.23-1.77-1.4-3.99-.44-5.92.97-1.95,2.84-3.18,5.02-3.28h.42c2.14.07,4.01,1.26,5,3.15.98,1.87.89,4.06-.24,5.85Z"/>
      <path class="st3" d="M36.11,29.06c-.2-.2-.03-.77.03-1.01.17-.67.78-1.99.27-2.57-.55-.62-1.59-.28-2.24,0-.1.07-.12.32-.15.44.3-.12,1-.29,1.07.18.16,1-1.5,3.24.14,3.69.61.17,1.23-.07,1.79-.3l.11-.4c-.25.1-.8.2-1.01,0Z"/>
      <path class="st3" d="M36.15,22.77c-1.21.17-.81,1.94.42,1.6,1.05-.28.72-1.76-.42-1.6Z"/>
    </g>
  </g>
  <g>
    <path class="st2" d="M59.68,63.89h-30.13v-.52h30.09s1.78.05,2.91-1.42c.81-1.01.76-2.2.76-2.21v-29.74h.52v29.74s.06,1.37-.87,2.53c-1.19,1.55-2.94,1.62-3.28,1.62Z"/>
    <path class="st4" d="M59.59,63.65h-30.05s-.69-12.53,10.36-24.09c10.68-10.76,21.84-9.55,23.65-9.55-.04,18.79-.07,29.69-.07,29.69,0,0,0,1.27-.83,2.39-1.13,1.51-3.05,1.57-3.05,1.57h-.01Z"/>
    <path id="path-8" class="st5" d="M46.79,53.1h1.56c.69,0,1.02-.25,1.17-.25.13,0,.23.1.23.31,0,.23-.25,1.27-.43,1.6-.13.23-.25.33-.69.33h-1.83c0,.52.02.88.03,1.06.02.64.14,1.65.34,1.93.33.48,1.34,1.02,3.35,1.02,2.59,0,4.32-.51,5.85-1.83,1.63-1.4,2.14-3.71,2.14-6.33,0-3.23-1.35-5.32-2.44-6.36-2.34-2.24-5.24-2.54-7.22-2.54-.51,0-1.53.08-1.73.18-.23.1-.32.23-.32.51v10.39h0v-.02h0ZM43.7,45.24c-.58.74-5.78,6.71-6.64,7.86h5.83v1.98h-7.9c-.31,0-.64-.1-.64-.38,0-.31.23-.53.33-.66.18-.2,10.51-12.6,10.73-12.85.41-.47.58-.58.86-.57.43.02.37.34,1.05.26.06,0,.92-.06,1.92-.06,3.18,0,7.43,0,10.2,2.9,1.27,1.32,2.47,3.43,2.47,6.46,0,3.2-1.35,5.65-2.77,7.1-1.17,1.2-3.82,2.87-8.53,2.87h-9.24c-.28,0-.36-.11-.36-.29s.08-.33.2-.33c.23,0,.79-.02,1.2-.08.97-.1,1.15-.5,1.2-1.29.08-1.38.08-3.07.08-3.07v-9.85h0Z"/>
  </g>
</svg>